<svg width="200" height="230" viewBox="0 0 200 230" fill="none" xmlns="http://www.w3.org/2000/svg">
<path fill-rule="evenodd" clip-rule="evenodd" d="M57.1095 0L100.834 52.756L101.107 71.5147L105.315 70.966L110.749 71.9357L121.311 76.8556L126.422 79.4226L128.481 93.4979L168.12 127.379L190.488 185.382L136.805 230H77.1571L23.474 185.382L45.8435 127.379L81.4069 97.9626L98.0009 104.975L110.869 98.9026L96.5396 99.2017L85.9715 93.0994L86.8976 82.9042L73.8347 76.3797L49.0987 46.6716L57.1095 0ZM67.7599 85.6432L75.4097 88.5507L72.8597 97.6334L35.3368 107.806L8.37898 117.975L0 114.71V101.268L23.4743 98.3607L67.7599 85.6432ZM187.616 65.5919L200 75.0391L195.629 85.6432H177.049L139.162 89.9355L142.076 83.2739L151.548 78.9728L162.477 75.7663L187.616 65.5919ZM180.693 12.9936L171.404 59.4287L137.638 78.3229L131.008 78.9728L127.778 75.6786L142.805 65.1801L152.073 44.6053L131.998 55.4192L122.161 71.0428L112.141 68.7613L120.917 46.619L180.693 12.9936Z" fill="#CB272C"/>
</svg>
